<svg xmlns="http://www.w3.org/2000/svg" viewBox="0 0 269 262" width="269" height="262" shape-rendering="geometricPrecision">
<title>Logo MA Taruna Teknik Al Jabbar TTA Medan - vectorized</title>
<g>
<path fill="#14b1de" d="M 49 120 L 43 121 L 43 125 L 48 125 L 50 122 Z M 91 106 L 94 110 L 100 110 L 97 106 Z M 70 82 L 65 86 L 65 88 L 68 88 L 68 84 Z M 209 67 L 210 70 L 213 68 Z M 176 61 L 176 64 L 173 67 L 174 68 L 177 64 L 180 65 Z M 136 63 L 140 63 L 140 61 L 144 60 L 145 57 L 139 57 L 137 55 L 139 61 Z M 188 54 L 193 58 L 191 63 L 193 64 L 194 57 Z M 95 38 L 97 40 L 96 48 L 98 49 L 97 44 L 99 41 Z"/>
<path fill="#e22230" d="M 74 53 L 70 56 L 68 55 L 66 59 L 68 58 L 69 60 L 67 62 L 63 62 L 66 63 L 69 61 L 69 59 L 74 56 Z M 90 51 L 87 51 L 90 54 L 89 57 L 86 54 L 82 54 L 87 63 L 88 61 L 84 57 L 85 55 L 89 57 L 90 60 L 94 59 L 91 57 L 89 53 Z M 186 49 L 186 51 L 193 51 L 189 47 Z M 134 7 L 121 17 L 119 16 L 118 19 L 116 18 L 115 22 L 96 36 L 93 36 L 94 38 L 90 43 L 88 42 L 89 39 L 82 49 L 76 51 L 77 54 L 79 50 L 83 50 L 86 47 L 86 44 L 88 44 L 89 47 L 92 47 L 92 45 L 96 43 L 94 39 L 96 37 L 99 39 L 101 46 L 106 50 L 106 53 L 103 54 L 97 47 L 93 50 L 95 51 L 95 56 L 98 60 L 94 62 L 93 65 L 89 65 L 89 70 L 87 70 L 86 67 L 85 70 L 82 70 L 82 67 L 74 63 L 75 60 L 79 63 L 81 61 L 77 58 L 74 60 L 72 64 L 79 70 L 77 74 L 79 79 L 77 80 L 74 77 L 71 80 L 68 89 L 65 89 L 58 79 L 61 78 L 66 84 L 68 79 L 75 72 L 74 70 L 70 70 L 71 68 L 69 65 L 68 66 L 70 69 L 63 72 L 68 76 L 67 78 L 58 76 L 54 79 L 53 76 L 56 73 L 60 73 L 59 68 L 62 65 L 59 64 L 11 102 L 13 112 L 17 117 L 16 122 L 23 141 L 21 144 L 26 148 L 27 155 L 25 157 L 28 157 L 31 168 L 30 173 L 33 173 L 31 176 L 34 177 L 40 196 L 38 198 L 41 200 L 43 206 L 42 210 L 45 213 L 50 232 L 54 237 L 53 241 L 59 257 L 65 257 L 66 259 L 67 257 L 209 257 L 212 259 L 216 243 L 219 243 L 218 237 L 221 236 L 219 235 L 221 223 L 224 221 L 224 214 L 227 211 L 227 206 L 235 183 L 233 180 L 236 179 L 240 165 L 243 164 L 241 161 L 244 152 L 247 151 L 245 149 L 247 143 L 250 141 L 248 138 L 252 135 L 250 132 L 254 120 L 257 118 L 255 115 L 258 106 L 261 105 L 257 99 L 240 87 L 240 84 L 236 85 L 231 77 L 227 79 L 226 76 L 217 70 L 210 63 L 210 61 L 208 62 L 205 57 L 203 58 L 196 55 L 194 59 L 195 65 L 199 65 L 200 63 L 207 64 L 208 66 L 212 65 L 214 69 L 210 71 L 214 70 L 216 77 L 225 83 L 224 86 L 230 95 L 230 101 L 234 105 L 233 109 L 236 111 L 237 108 L 239 109 L 237 120 L 234 119 L 234 113 L 222 119 L 221 115 L 226 113 L 231 107 L 229 108 L 228 106 L 230 105 L 228 105 L 226 108 L 225 105 L 218 102 L 219 100 L 224 102 L 227 100 L 221 89 L 219 91 L 217 90 L 218 88 L 215 85 L 219 84 L 216 81 L 214 82 L 212 87 L 215 86 L 217 89 L 210 89 L 208 82 L 211 82 L 213 77 L 211 74 L 206 76 L 206 78 L 209 78 L 210 80 L 203 85 L 202 81 L 205 80 L 202 79 L 200 81 L 196 77 L 198 75 L 203 75 L 206 71 L 204 69 L 206 68 L 202 68 L 205 72 L 201 72 L 201 75 L 194 71 L 192 65 L 189 67 L 189 64 L 187 63 L 192 58 L 188 57 L 187 61 L 183 63 L 181 57 L 184 57 L 184 53 L 181 51 L 177 52 L 178 54 L 176 55 L 180 58 L 180 65 L 175 63 L 173 60 L 175 58 L 162 58 L 156 54 L 153 55 L 150 52 L 151 50 L 163 53 L 161 52 L 162 48 L 166 50 L 165 54 L 168 55 L 167 49 L 170 47 L 167 44 L 167 46 L 164 47 L 162 42 L 159 43 L 158 41 L 150 41 L 148 44 L 146 39 L 143 39 L 145 40 L 144 42 L 147 42 L 148 48 L 145 49 L 143 47 L 142 49 L 138 49 L 137 47 L 140 45 L 137 43 L 140 41 L 137 40 L 137 47 L 134 48 L 132 44 L 134 39 L 131 41 L 128 39 L 127 43 L 128 41 L 130 42 L 129 46 L 126 46 L 122 42 L 125 40 L 123 39 L 115 45 L 120 45 L 120 50 L 136 49 L 137 51 L 135 53 L 128 52 L 127 54 L 122 55 L 117 52 L 114 47 L 111 47 L 113 52 L 109 53 L 109 50 L 106 48 L 109 46 L 108 43 L 110 42 L 112 45 L 112 43 L 116 41 L 109 42 L 105 45 L 104 42 L 106 40 L 116 36 L 130 36 L 132 34 L 139 34 L 141 36 L 151 35 L 152 37 L 157 36 L 159 38 L 162 37 L 166 40 L 173 41 L 174 46 L 173 49 L 170 50 L 171 51 L 186 45 L 185 42 L 183 43 L 177 40 L 176 35 L 173 36 L 162 27 L 163 25 L 157 25 L 153 20 L 154 18 L 150 19 L 146 12 L 143 12 L 140 15 L 136 10 L 136 7 Z"/>
<path fill="#fbee4b" d="M 159 245 L 157 244 L 158 245 L 156 246 Z M 135 240 L 136 243 L 134 244 L 136 244 L 137 242 L 138 243 L 138 240 Z M 151 239 L 153 244 L 152 246 L 153 245 L 154 246 L 153 245 L 154 244 L 154 239 L 152 241 Z M 130 237 L 127 242 L 128 240 L 129 242 L 131 240 L 129 239 Z M 114 236 L 117 236 L 120 239 L 118 240 L 118 243 L 119 242 L 120 243 L 119 240 L 120 239 L 118 237 L 119 236 L 128 236 Z M 138 166 L 135 169 L 136 170 L 137 182 L 138 182 L 138 176 L 137 175 L 137 167 Z M 128 166 L 126 166 L 125 182 L 120 186 L 126 182 L 127 180 L 127 168 Z M 132 129 L 131 133 L 132 133 L 131 131 Z M 94 115 L 93 116 L 95 116 L 97 118 L 95 119 L 95 121 L 92 124 L 91 122 L 91 125 L 95 121 L 96 123 L 95 124 L 96 123 L 95 120 L 97 119 L 97 117 Z M 39 107 L 43 109 L 42 110 L 43 109 L 47 110 L 47 109 L 44 108 L 43 109 Z M 198 67 L 198 69 L 200 68 Z M 73 64 L 72 65 L 70 62 L 65 64 L 61 68 L 67 63 L 69 63 L 71 65 L 71 67 L 73 68 L 72 65 Z M 74 61 L 75 60 L 77 63 L 79 63 L 79 62 L 78 63 L 77 62 L 78 60 Z M 186 54 L 183 57 L 183 59 Z M 84 51 L 82 51 L 79 54 L 80 55 L 79 57 L 83 61 L 82 63 L 83 61 L 85 62 L 82 59 L 84 55 L 83 57 L 79 54 L 82 51 Z M 94 45 L 92 50 L 93 51 L 91 53 L 89 51 L 92 55 Z M 158 41 L 157 43 L 159 44 L 157 47 L 159 48 L 158 47 L 159 41 Z M 128 41 L 125 42 L 126 43 Z M 152 38 L 150 38 L 153 41 L 150 43 L 151 45 L 150 49 L 152 46 L 150 43 L 151 42 L 154 43 Z M 118 38 L 116 39 L 117 43 L 119 42 L 117 41 Z M 141 37 L 140 38 L 141 40 L 140 45 L 141 45 Z"/>
<path fill="#283291" d="M 134 205 L 136 215 L 136 210 L 134 207 L 136 206 L 141 210 L 138 206 Z M 121 205 L 121 217 L 121 210 L 124 209 Z M 94 177 L 102 189 L 101 192 L 104 191 L 105 193 L 109 193 L 111 191 L 117 194 L 116 192 L 127 185 L 129 181 L 116 192 L 105 191 L 100 186 L 100 184 L 104 182 L 99 183 Z M 174 174 L 166 186 L 161 189 L 167 189 L 166 186 Z M 178 146 L 173 151 L 175 149 L 177 150 L 177 153 L 174 155 L 177 156 L 177 160 Z M 109 139 L 120 156 L 130 167 L 129 178 L 129 170 L 132 169 L 129 166 L 130 161 L 129 164 L 124 161 Z M 88 139 L 88 160 L 91 171 L 92 169 L 89 165 L 91 163 L 89 162 L 89 156 L 92 155 L 89 153 L 89 150 L 91 149 L 93 151 L 89 148 Z M 170 112 L 153 146 L 168 116 L 173 122 L 177 144 L 177 135 Z M 96 112 L 95 115 L 99 117 L 108 137 Z M 112 73 L 123 83 L 119 96 L 120 98 L 131 90 L 134 90 L 144 98 L 146 96 L 143 88 L 145 93 L 144 96 L 140 95 L 134 90 L 131 90 L 124 96 L 121 96 L 120 94 L 123 82 L 114 76 L 113 73 L 116 72 L 117 74 L 127 74 L 127 72 Z M 138 74 L 148 74 L 151 72 L 138 71 Z"/>
<path fill="#fafafa" d="M 105 248 L 105 249 L 110 249 L 111 248 L 113 249 L 113 248 L 110 249 Z M 142 248 L 139 247 L 138 248 L 126 248 L 125 249 L 124 248 L 120 249 L 115 248 L 115 249 L 134 249 L 135 248 L 136 249 L 138 248 L 142 249 Z M 110 236 L 120 235 L 110 235 Z M 107 234 L 105 236 L 103 236 L 102 238 L 104 243 L 103 245 L 104 245 L 103 238 L 106 235 L 108 235 Z M 122 235 L 128 235 L 129 236 L 138 235 L 143 239 L 145 236 L 149 235 L 152 240 L 152 238 L 155 235 L 159 236 L 162 235 L 165 238 L 164 246 L 162 248 L 158 247 L 156 249 L 147 247 L 145 249 L 146 248 L 148 249 L 149 248 L 151 249 L 158 249 L 159 248 L 160 249 L 161 248 L 162 249 L 164 248 L 165 245 L 165 238 L 164 237 L 166 235 L 162 234 L 161 235 L 156 234 L 154 236 L 152 236 L 150 234 L 144 235 L 143 237 L 136 234 L 130 235 L 128 233 L 129 234 L 128 235 L 125 234 Z M 124 220 L 131 224 L 134 224 L 139 220 L 133 224 L 131 224 Z M 189 219 L 188 223 L 182 220 L 181 221 L 185 223 L 188 223 Z M 35 122 L 37 122 L 38 124 L 41 124 L 39 122 L 36 121 Z M 132 118 L 131 119 L 131 129 L 132 128 Z M 132 108 L 134 116 L 134 134 L 135 134 L 134 132 L 135 120 L 133 110 L 134 109 Z M 50 108 L 48 110 L 45 123 L 44 124 L 43 123 L 43 124 L 45 123 L 45 120 L 47 119 L 47 115 Z M 168 107 L 165 109 L 165 113 L 162 118 L 163 120 L 160 121 L 161 125 L 159 127 L 157 133 L 152 138 L 153 139 L 151 143 L 146 147 L 146 150 L 143 155 L 137 160 L 136 159 L 137 154 L 135 147 L 136 146 L 135 136 L 136 162 L 141 158 L 151 144 L 162 124 L 164 116 L 168 109 L 171 113 L 174 124 L 176 127 L 177 131 L 176 132 L 178 138 L 178 147 L 179 148 L 178 149 L 179 150 L 178 151 L 176 170 L 174 173 L 172 171 L 173 162 L 175 160 L 171 162 L 169 161 L 175 156 L 175 155 L 174 156 L 172 155 L 175 150 L 172 152 L 171 151 L 172 148 L 175 146 L 174 145 L 170 148 L 169 147 L 173 142 L 175 137 L 174 136 L 175 137 L 170 141 L 169 140 L 172 136 L 172 131 L 170 133 L 169 131 L 173 128 L 171 127 L 170 123 L 168 126 L 167 125 L 169 120 L 169 117 L 168 117 L 167 119 L 166 118 L 166 122 L 164 127 L 162 128 L 163 129 L 161 130 L 162 131 L 160 132 L 161 133 L 158 135 L 159 137 L 158 138 L 157 137 L 158 138 L 156 142 L 154 143 L 153 147 L 149 150 L 150 151 L 147 153 L 148 154 L 147 156 L 141 161 L 142 162 L 137 166 L 138 167 L 139 183 L 141 183 L 145 187 L 146 186 L 147 188 L 149 187 L 151 188 L 153 186 L 155 187 L 154 186 L 155 185 L 164 185 L 160 182 L 162 180 L 166 179 L 163 177 L 172 172 L 174 174 L 172 179 L 167 184 L 168 188 L 167 189 L 151 190 L 146 193 L 145 192 L 147 194 L 146 195 L 143 193 L 140 195 L 139 193 L 143 191 L 144 189 L 145 190 L 138 185 L 136 193 L 139 195 L 136 197 L 133 194 L 134 193 L 133 188 L 136 184 L 134 178 L 135 164 L 133 162 L 134 161 L 132 144 L 131 145 L 130 142 L 129 143 L 128 142 L 128 133 L 129 132 L 130 133 L 130 138 L 132 139 L 131 135 L 132 134 L 129 132 L 129 116 L 130 115 L 131 116 L 130 115 L 130 107 L 128 136 L 127 137 L 128 139 L 126 142 L 127 151 L 125 156 L 122 155 L 118 150 L 118 148 L 111 140 L 110 135 L 103 126 L 102 122 L 104 120 L 103 121 L 98 111 L 99 110 L 94 109 L 91 114 L 90 121 L 87 124 L 86 136 L 85 137 L 85 158 L 87 164 L 86 165 L 89 175 L 92 179 L 92 181 L 97 187 L 95 189 L 93 189 L 92 191 L 88 190 L 87 192 L 83 193 L 82 195 L 81 194 L 79 196 L 79 205 L 79 198 L 82 195 L 84 198 L 83 199 L 83 208 L 81 209 L 81 218 L 83 219 L 86 218 L 87 219 L 81 223 L 85 221 L 88 221 L 86 220 L 93 217 L 94 218 L 96 217 L 113 217 L 115 218 L 117 216 L 119 216 L 120 215 L 118 215 L 116 217 L 111 217 L 103 215 L 102 216 L 92 217 L 90 215 L 92 213 L 93 214 L 94 213 L 99 214 L 103 212 L 106 212 L 107 214 L 114 215 L 113 212 L 115 210 L 115 204 L 113 207 L 110 204 L 110 201 L 113 199 L 121 200 L 122 198 L 125 200 L 124 202 L 125 202 L 124 201 L 126 199 L 134 200 L 135 198 L 138 201 L 139 204 L 136 207 L 134 206 L 135 208 L 134 210 L 136 212 L 133 215 L 132 214 L 130 215 L 125 211 L 127 210 L 126 208 L 127 207 L 128 208 L 128 206 L 126 208 L 125 206 L 124 207 L 121 206 L 121 209 L 123 212 L 122 214 L 123 218 L 122 219 L 118 218 L 119 219 L 122 219 L 125 217 L 126 219 L 128 218 L 129 220 L 131 219 L 135 220 L 137 217 L 139 218 L 138 217 L 140 215 L 144 216 L 146 214 L 147 215 L 147 214 L 137 215 L 135 213 L 138 208 L 137 207 L 140 206 L 139 202 L 141 200 L 143 200 L 144 198 L 145 200 L 148 201 L 147 202 L 148 201 L 149 202 L 148 204 L 149 208 L 151 209 L 152 213 L 154 213 L 156 216 L 158 217 L 167 216 L 177 218 L 157 214 L 158 213 L 167 213 L 168 212 L 169 214 L 172 213 L 174 215 L 175 214 L 176 216 L 178 215 L 182 216 L 185 219 L 186 217 L 185 205 L 187 203 L 187 200 L 185 199 L 186 198 L 185 197 L 186 196 L 189 197 L 189 199 L 189 197 L 185 192 L 179 189 L 175 189 L 169 185 L 174 178 L 175 174 L 177 173 L 176 172 L 176 167 L 178 164 L 178 159 L 179 158 L 178 157 L 179 156 L 179 137 L 177 134 L 178 129 L 176 126 L 176 123 L 173 120 L 172 112 Z M 227 109 L 228 110 L 227 112 L 232 110 L 235 113 L 235 115 L 237 113 L 236 109 L 235 111 L 232 110 L 231 108 L 232 106 L 228 110 Z M 222 105 L 223 108 L 224 108 L 225 105 L 224 107 Z M 39 103 L 34 109 L 32 120 L 32 118 L 35 114 L 35 108 L 37 106 L 40 106 L 43 108 Z M 54 102 L 54 99 L 52 97 L 51 98 L 48 96 L 42 98 L 41 97 L 39 99 L 43 97 L 44 98 L 49 98 L 50 97 L 53 100 L 52 104 L 50 105 Z M 222 93 L 221 94 L 222 95 L 223 94 Z M 108 70 L 109 75 L 111 77 L 114 77 L 116 79 L 116 81 L 119 83 L 119 88 L 117 89 L 117 93 L 115 96 L 117 99 L 120 99 L 122 97 L 128 95 L 129 92 L 134 92 L 141 98 L 147 99 L 147 94 L 145 91 L 143 83 L 148 80 L 149 78 L 152 77 L 156 72 L 155 70 L 139 69 L 136 65 L 137 63 L 133 55 L 128 55 L 127 60 L 128 61 L 124 69 L 117 69 L 116 70 L 110 69 Z M 119 51 L 122 52 L 124 50 L 126 50 L 120 50 Z M 134 49 L 135 50 L 136 49 L 138 50 L 147 50 L 146 49 L 144 50 L 143 49 L 142 50 Z M 128 49 L 128 50 L 131 51 L 132 49 L 130 50 Z M 117 44 L 115 44 L 116 50 L 114 52 L 111 52 L 113 53 L 117 50 Z M 138 40 L 139 43 L 140 43 L 140 40 L 139 41 Z M 130 36 L 126 35 L 125 36 L 124 35 L 123 36 L 117 36 L 114 38 L 113 37 L 109 38 L 107 40 L 105 40 L 106 41 L 104 43 L 106 47 L 109 49 L 108 50 L 109 51 L 110 50 L 109 46 L 107 47 L 105 45 L 105 42 L 108 39 L 117 38 L 120 36 L 125 36 L 126 37 Z M 132 4 L 118 16 L 93 34 L 92 36 L 89 37 L 87 40 L 85 40 L 8 100 L 8 103 L 14 120 L 14 124 L 17 129 L 16 131 L 18 134 L 23 152 L 25 154 L 24 148 L 21 144 L 21 140 L 15 124 L 16 121 L 15 122 L 14 121 L 15 116 L 13 115 L 11 111 L 9 101 L 18 93 L 23 91 L 27 86 L 34 81 L 38 82 L 36 82 L 35 80 L 47 71 L 48 72 L 49 69 L 50 72 L 50 70 L 58 62 L 61 62 L 62 65 L 59 68 L 60 72 L 53 75 L 53 77 L 55 79 L 54 80 L 50 79 L 44 89 L 47 92 L 45 89 L 46 85 L 51 80 L 54 80 L 56 82 L 55 85 L 59 87 L 60 89 L 56 94 L 52 91 L 50 91 L 50 92 L 52 92 L 54 94 L 58 93 L 61 87 L 73 75 L 75 75 L 75 73 L 78 69 L 80 68 L 83 69 L 84 65 L 86 66 L 86 68 L 88 68 L 85 65 L 89 62 L 92 62 L 94 59 L 96 59 L 99 56 L 92 59 L 91 61 L 89 61 L 86 64 L 83 63 L 83 65 L 80 68 L 76 69 L 77 70 L 63 83 L 63 85 L 61 87 L 59 87 L 54 78 L 54 75 L 57 73 L 64 74 L 63 71 L 62 72 L 60 71 L 60 68 L 65 63 L 69 62 L 72 57 L 86 48 L 88 48 L 91 52 L 92 51 L 91 50 L 92 46 L 94 44 L 97 44 L 104 50 L 98 43 L 93 44 L 91 47 L 87 46 L 86 48 L 85 47 L 84 49 L 79 51 L 76 54 L 74 54 L 73 56 L 71 56 L 72 57 L 69 58 L 69 60 L 66 63 L 63 63 L 61 61 L 63 59 L 64 60 L 65 57 L 67 58 L 66 56 L 71 52 L 75 51 L 74 50 L 76 48 L 80 47 L 85 41 L 89 40 L 91 37 L 93 37 L 92 36 L 105 26 L 107 27 L 106 26 L 110 22 L 112 22 L 115 18 L 125 12 L 133 5 L 135 5 L 138 9 L 139 8 L 141 12 L 142 10 L 156 21 L 156 23 L 159 23 L 162 26 L 161 27 L 163 26 L 169 31 L 168 32 L 170 32 L 172 34 L 171 35 L 174 34 L 176 36 L 176 38 L 182 41 L 181 42 L 182 41 L 186 44 L 185 45 L 188 48 L 190 47 L 192 48 L 193 52 L 192 53 L 189 51 L 185 51 L 182 47 L 177 47 L 171 52 L 168 49 L 172 45 L 171 41 L 167 40 L 166 41 L 163 39 L 160 40 L 157 37 L 151 37 L 150 36 L 138 36 L 137 35 L 133 36 L 132 35 L 132 36 L 136 35 L 140 37 L 145 36 L 146 37 L 156 38 L 158 40 L 162 39 L 168 41 L 171 44 L 171 46 L 168 48 L 169 52 L 167 55 L 149 50 L 152 53 L 156 52 L 158 55 L 159 53 L 166 56 L 171 54 L 172 55 L 170 56 L 173 59 L 175 59 L 177 62 L 179 63 L 181 62 L 183 64 L 183 67 L 185 66 L 191 67 L 192 65 L 193 66 L 193 72 L 194 74 L 197 75 L 196 77 L 201 79 L 202 82 L 208 88 L 210 92 L 212 93 L 214 100 L 216 102 L 217 106 L 220 109 L 219 112 L 221 113 L 221 116 L 225 126 L 227 127 L 230 124 L 234 124 L 237 120 L 236 117 L 236 121 L 234 124 L 231 124 L 229 122 L 230 121 L 229 122 L 230 123 L 227 127 L 224 124 L 224 119 L 222 118 L 222 114 L 220 112 L 220 108 L 218 106 L 218 103 L 215 100 L 213 94 L 204 83 L 203 80 L 199 77 L 200 76 L 197 75 L 194 72 L 193 68 L 195 66 L 200 67 L 201 65 L 204 64 L 207 69 L 203 73 L 208 71 L 210 72 L 212 71 L 213 76 L 211 81 L 214 79 L 217 79 L 222 85 L 222 88 L 225 90 L 228 96 L 227 99 L 224 101 L 227 101 L 228 94 L 224 87 L 222 86 L 223 82 L 221 83 L 220 80 L 214 76 L 212 70 L 211 71 L 208 70 L 207 68 L 210 67 L 208 67 L 206 64 L 199 63 L 201 64 L 200 66 L 199 65 L 194 65 L 193 60 L 192 62 L 190 61 L 193 57 L 189 60 L 193 63 L 189 67 L 186 66 L 184 64 L 185 63 L 184 64 L 176 59 L 174 59 L 171 56 L 177 49 L 181 47 L 184 50 L 184 56 L 187 52 L 190 52 L 192 55 L 193 55 L 194 52 L 200 54 L 212 64 L 210 65 L 212 66 L 211 65 L 213 64 L 221 72 L 222 71 L 226 76 L 230 77 L 236 83 L 244 88 L 248 93 L 249 92 L 259 100 L 259 104 L 255 114 L 255 118 L 250 131 L 250 134 L 248 137 L 249 139 L 247 142 L 241 160 L 239 170 L 237 173 L 236 178 L 233 179 L 235 182 L 227 206 L 227 210 L 224 213 L 224 220 L 221 223 L 220 232 L 216 242 L 214 251 L 212 254 L 213 255 L 211 257 L 58 257 L 55 253 L 56 252 L 54 249 L 54 245 L 51 240 L 52 237 L 48 231 L 48 227 L 46 224 L 38 195 L 33 182 L 34 180 L 32 179 L 31 172 L 26 160 L 26 156 L 25 156 L 27 165 L 30 171 L 31 178 L 37 194 L 36 195 L 38 197 L 38 200 L 42 209 L 42 213 L 49 233 L 51 243 L 57 258 L 64 258 L 65 257 L 66 258 L 208 258 L 212 257 L 214 254 L 217 241 L 222 229 L 222 225 L 224 222 L 226 212 L 231 200 L 234 185 L 236 182 L 240 166 L 245 153 L 250 133 L 252 131 L 251 130 L 259 107 L 260 99 L 239 84 L 233 78 L 227 75 L 226 73 L 217 67 L 212 62 L 209 61 L 205 57 L 203 57 L 200 53 L 197 52 L 195 49 L 184 42 L 182 39 L 175 35 L 154 18 L 152 18 L 144 10 L 141 9 L 135 4 Z"/>
</g>

<g font-family="Arial, Helvetica, sans-serif" font-weight="700" text-anchor="middle" letter-spacing="1" paint-order="stroke" stroke="#14b1de" stroke-width="1.2">
  <path id="topArc" d="M 44 103 A 108 108 0 0 1 242 103" fill="none"/>
  <text font-size="13" fill="#fbee4b"><textPath href="#topArc" startOffset="50%">MA TARUNA TEKNIK AL JABBAR</textPath></text>
  <text x="143" y="180" font-size="19" fill="#ffffff" stroke="#283291" stroke-width="1">TTA</text>
  <text x="143" y="249" font-size="15" fill="#fbee4b">MEDAN</text>
</g>

</svg>